# xmcd CD database file
#
# Track frame offsets:
#	150
#	22489
#	37952
#	52047
#	70782
#	90174
#	115614
#	127417
#	145864
#	167259
#	185340
#
# Disc length: 2700 seconds
#
# Revision: 0
# Processed by: cddbd v1.5PL3 Copyright (c) Steve Scherf et al.
# Submitted via: CDex 1.50beta10
#
DISCID=920a8a0b
DTITLE=Sam Carr's Delta Jukes - Down In The Delta
DYEAR=2004
DGENRE=Blues
TTITLE0=I Got Love
TTITLE1=All My Life
TTITLE2=I'm Tired
TTITLE3=I Cried
TTITLE4=Blues Is A Feeling
TTITLE5=I'm Hungry
TTITLE6=Better Take It Slow
TTITLE7=You Need Love
TTITLE8=Shine
TTITLE9=Juke Joint Saturday Night
TTITLE10=Down In The Delta
EXTD=YEAR: 2004
EXTT0=
EXTT1=
EXTT2=
EXTT3=
EXTT4=
EXTT5=
EXTT6=
EXTT7=
EXTT8=
EXTT9=
EXTT10=
PLAYORDER=
